<?xml version="1.0" encoding="UTF-8"?>
<svg id="Layer_2" data-name="Layer 2" xmlns="http://www.w3.org/2000/svg" viewBox="0 0 357.7 433.72">
  <defs>
    <style>
      .cls-1 {
        fill: #664f78;
      }

      .cls-2 {
        fill: #805482;
      }

      .cls-3 {
        fill: #8d5687;
      }

      .cls-4 {
        fill: #b85e97;
      }

      .cls-5 {
        fill: #73527d;
      }

      .cls-6 {
        fill: #d964a6;
      }

      .cls-7 {
        fill: #c7609c;
      }

      .cls-8 {
        fill: #a95b91;
      }

      .cls-9 {
        fill: #0f4460;
      }

      .cls-10 {
        fill: #9b598c;
      }

      .cls-11 {
        fill: #294665;
      }

      .cls-12 {
        fill: #4a4b6e;
      }

      .cls-13 {
        fill: #3b486a;
      }

      .cls-14 {
        fill: #584d73;
      }
    </style>
  </defs>
  <g id="Layer_1-2" data-name="Layer 1">
    <g>
      <g>
        <path class="cls-9" d="M74.67,94.16v214.01c0,17.33,14.05,31.39,31.39,31.39h102.73c17.33,0,31.39,14.05,31.39,31.39h0c0,17.33-14.05,31.39-31.39,31.39H31.39c-17.33,0-31.39-14.05-31.39-31.39V94.16c0-17.33,14.05-31.39,31.39-31.39h11.89c17.33,0,31.39,14.05,31.39,31.39Z"/>
        <path class="cls-9" d="M240.17,308.17V94.16c0-17.33-14.05-31.39-31.39-31.39H106.05c-17.33,0-31.39-14.05-31.39-31.39h0c0-17.33,14.05-31.39,31.39-31.39h177.39c17.33,0,31.39,14.05,31.39,31.39V308.17c0,17.33-14.05,31.39-31.39,31.39h-11.89c-17.33,0-31.39-14.05-31.39-31.39Z"/>
      </g>
      <g>
        <path class="cls-11" d="M77.96,96.57v214.01c0,17.33,14.05,31.39,31.39,31.39h102.73c17.33,0,31.39,14.05,31.39,31.39h0c0,17.33-14.05,31.39-31.39,31.39H34.68c-17.33,0-31.39-14.05-31.39-31.39V96.57c0-17.33,14.05-31.39,31.39-31.39h11.89c17.33,0,31.39,14.05,31.39,31.39Z"/>
        <path class="cls-11" d="M243.46,310.59V96.58c0-17.33-14.05-31.39-31.39-31.39H109.35c-17.33,0-31.39-14.05-31.39-31.39h0c0-17.33,14.05-31.39,31.39-31.39h177.39c17.33,0,31.39,14.05,31.39,31.39V310.59c0,17.33-14.05,31.39-31.39,31.39h-11.89c-17.33,0-31.39-14.05-31.39-31.39Z"/>
      </g>
      <g>
        <path class="cls-13" d="M81.26,98.99v214.01c0,17.33,14.05,31.39,31.39,31.39h102.73c17.33,0,31.39,14.05,31.39,31.39h0c0,17.33-14.05,31.39-31.39,31.39H37.98c-17.33,0-31.39-14.05-31.39-31.39V98.99c0-17.33,14.05-31.39,31.39-31.39h11.89c17.33,0,31.39,14.05,31.39,31.39Z"/>
        <path class="cls-13" d="M246.76,313V98.99c0-17.33-14.05-31.39-31.39-31.39H112.65c-17.33,0-31.39-14.05-31.39-31.39h0c0-17.33,14.05-31.39,31.39-31.39h177.39c17.33,0,31.39,14.05,31.39,31.39V313c0,17.33-14.05,31.39-31.39,31.39h-11.89c-17.33,0-31.39-14.05-31.39-31.39Z"/>
      </g>
      <g>
        <path class="cls-12" d="M84.56,101.4v214.01c0,17.33,14.05,31.39,31.39,31.39h102.73c17.33,0,31.39,14.05,31.39,31.39h0c0,17.33-14.05,31.39-31.39,31.39H41.28c-17.33,0-31.39-14.05-31.39-31.39V101.4c0-17.33,14.05-31.39,31.39-31.39h11.89c17.33,0,31.39,14.05,31.39,31.39Z"/>
        <path class="cls-12" d="M250.06,315.42V101.4c0-17.33-14.05-31.39-31.39-31.39H115.95c-17.33,0-31.39-14.05-31.39-31.39h0c0-17.33,14.05-31.39,31.39-31.39h177.39c17.33,0,31.39,14.05,31.39,31.39V315.42c0,17.33-14.05,31.39-31.39,31.39h-11.89c-17.33,0-31.39-14.05-31.39-31.39Z"/>
      </g>
      <g>
        <path class="cls-14" d="M87.86,103.82v214.01c0,17.33,14.05,31.39,31.39,31.39h102.73c17.33,0,31.39,14.05,31.39,31.39h0c0,17.33-14.05,31.39-31.39,31.39H44.58c-17.33,0-31.39-14.05-31.39-31.39V103.82c0-17.33,14.05-31.39,31.39-31.39h11.89c17.33,0,31.39,14.05,31.39,31.39Z"/>
        <path class="cls-14" d="M253.36,317.83V103.82c0-17.33-14.05-31.39-31.39-31.39H119.24c-17.33,0-31.39-14.05-31.39-31.39h0c0-17.33,14.05-31.39,31.39-31.39h177.39c17.33,0,31.39,14.05,31.39,31.39V317.83c0,17.33-14.05,31.39-31.39,31.39h-11.89c-17.33,0-31.39-14.05-31.39-31.39Z"/>
      </g>
      <g>
        <path class="cls-1" d="M91.15,106.23v214.01c0,17.33,14.05,31.39,31.39,31.39h102.73c17.33,0,31.39,14.05,31.39,31.39h0c0,17.33-14.05,31.39-31.39,31.39H47.88c-17.33,0-31.39-14.05-31.39-31.39V106.23c0-17.33,14.05-31.39,31.39-31.39h11.89c17.33,0,31.39,14.05,31.39,31.39Z"/>
        <path class="cls-1" d="M256.66,320.25V106.23c0-17.33-14.05-31.39-31.39-31.39H122.54c-17.33,0-31.39-14.05-31.39-31.39h0c0-17.33,14.05-31.39,31.39-31.39h177.39c17.33,0,31.39,14.05,31.39,31.39V320.25c0,17.33-14.05,31.39-31.39,31.39h-11.89c-17.33,0-31.39-14.05-31.39-31.39Z"/>
      </g>
      <g>
        <path class="cls-5" d="M94.45,108.64v214.01c0,17.33,14.05,31.39,31.39,31.39h102.73c17.33,0,31.39,14.05,31.39,31.39h0c0,17.33-14.05,31.39-31.39,31.39H51.17c-17.33,0-31.39-14.05-31.39-31.39V108.64c0-17.33,14.05-31.39,31.39-31.39h11.89c17.33,0,31.39,14.05,31.39,31.39Z"/>
        <path class="cls-5" d="M259.95,322.66V108.65c0-17.33-14.05-31.39-31.39-31.39H125.84c-17.33,0-31.39-14.05-31.39-31.39h0c0-17.33,14.05-31.39,31.39-31.39h177.39c17.33,0,31.39,14.05,31.39,31.39V322.66c0,17.33-14.05,31.39-31.39,31.39h-11.89c-17.33,0-31.39-14.05-31.39-31.39Z"/>
      </g>
      <g>
        <path class="cls-2" d="M97.75,111.06v214.01c0,17.33,14.05,31.39,31.39,31.39h102.73c17.33,0,31.39,14.05,31.39,31.39h0c0,17.33-14.05,31.39-31.39,31.39H54.47c-17.33,0-31.39-14.05-31.39-31.39V111.06c0-17.33,14.05-31.39,31.39-31.39h11.89c17.33,0,31.39,14.05,31.39,31.39Z"/>
        <path class="cls-2" d="M263.25,325.07V111.06c0-17.33-14.05-31.39-31.39-31.39h-102.73c-17.33,0-31.39-14.05-31.39-31.39h0c0-17.33,14.05-31.39,31.39-31.39h177.39c17.33,0,31.39,14.05,31.39,31.39V325.07c0,17.33-14.05,31.39-31.39,31.39h-11.89c-17.33,0-31.39-14.05-31.39-31.39Z"/>
      </g>
      <g>
        <path class="cls-3" d="M101.05,113.47v214.01c0,17.33,14.05,31.39,31.39,31.39h102.73c17.33,0,31.39,14.05,31.39,31.39h0c0,17.33-14.05,31.39-31.39,31.39H57.77c-17.33,0-31.39-14.05-31.39-31.39V113.47c0-17.33,14.05-31.39,31.39-31.39h11.89c17.33,0,31.39,14.05,31.39,31.39Z"/>
        <path class="cls-3" d="M266.55,327.49V113.48c0-17.33-14.05-31.39-31.39-31.39h-102.73c-17.33,0-31.39-14.05-31.39-31.39h0c0-17.33,14.05-31.39,31.39-31.39h177.39c17.33,0,31.39,14.05,31.39,31.39V327.49c0,17.33-14.05,31.39-31.39,31.39h-11.89c-17.33,0-31.39-14.05-31.39-31.39Z"/>
      </g>
      <g>
        <path class="cls-10" d="M104.35,115.89v214.01c0,17.33,14.05,31.39,31.39,31.39h102.73c17.33,0,31.39,14.05,31.39,31.39h0c0,17.33-14.05,31.39-31.39,31.39H61.07c-17.33,0-31.39-14.05-31.39-31.39V115.89c0-17.33,14.05-31.39,31.39-31.39h11.89c17.33,0,31.39,14.05,31.39,31.39Z"/>
        <path class="cls-10" d="M269.85,329.9V115.89c0-17.33-14.05-31.39-31.39-31.39h-102.73c-17.33,0-31.39-14.05-31.39-31.39h0c0-17.33,14.05-31.39,31.39-31.39h177.39c17.33,0,31.39,14.05,31.39,31.39V329.9c0,17.33-14.05,31.39-31.39,31.39h-11.89c-17.33,0-31.39-14.05-31.39-31.39Z"/>
      </g>
      <g>
        <path class="cls-8" d="M107.64,118.3v214.01c0,17.33,14.05,31.39,31.39,31.39h102.73c17.33,0,31.39,14.05,31.39,31.39h0c0,17.33-14.05,31.39-31.39,31.39H64.36c-17.33,0-31.39-14.05-31.39-31.39V118.3c0-17.33,14.05-31.39,31.39-31.39h11.89c17.33,0,31.39,14.05,31.39,31.39Z"/>
        <path class="cls-8" d="M273.14,332.32V118.3c0-17.33-14.05-31.39-31.39-31.39h-102.73c-17.33,0-31.39-14.05-31.39-31.39h0c0-17.33,14.05-31.39,31.39-31.39h177.39c17.33,0,31.39,14.05,31.39,31.39V332.32c0,17.33-14.05,31.39-31.39,31.39h-11.89c-17.33,0-31.39-14.05-31.39-31.39Z"/>
      </g>
      <g>
        <path class="cls-4" d="M110.94,120.72v214.01c0,17.33,14.05,31.39,31.39,31.39h102.73c17.33,0,31.39,14.05,31.39,31.39h0c0,17.33-14.05,31.39-31.39,31.39H67.66c-17.33,0-31.39-14.05-31.39-31.39V120.72c0-17.33,14.05-31.39,31.39-31.39h11.89c17.33,0,31.39,14.05,31.39,31.39Z"/>
        <path class="cls-4" d="M276.44,334.73V120.72c0-17.33-14.05-31.39-31.39-31.39h-102.73c-17.33,0-31.39-14.05-31.39-31.39h0c0-17.33,14.05-31.39,31.39-31.39h177.39c17.33,0,31.39,14.05,31.39,31.39V334.73c0,17.33-14.05,31.39-31.39,31.39h-11.89c-17.33,0-31.39-14.05-31.39-31.39Z"/>
      </g>
      <g>
        <path class="cls-7" d="M114.24,123.13v214.01c0,17.33,14.05,31.39,31.39,31.39h102.73c17.33,0,31.39,14.05,31.39,31.39h0c0,17.33-14.05,31.39-31.39,31.39H70.96c-17.33,0-31.39-14.05-31.39-31.39V123.13c0-17.33,14.05-31.39,31.39-31.39h11.89c17.33,0,31.39,14.05,31.39,31.39Z"/>
        <path class="cls-7" d="M279.74,337.15V123.13c0-17.33-14.05-31.39-31.39-31.39h-102.73c-17.33,0-31.39-14.05-31.39-31.39h0c0-17.33,14.05-31.39,31.39-31.39h177.39c17.33,0,31.39,14.05,31.39,31.39V337.15c0,17.33-14.05,31.39-31.39,31.39h-11.89c-17.33,0-31.39-14.05-31.39-31.39Z"/>
      </g>
      <g>
        <path class="cls-6" d="M117.54,125.54v214.01c0,17.33,14.05,31.39,31.39,31.39h102.73c17.33,0,31.39,14.05,31.39,31.39h0c0,17.33-14.05,31.39-31.39,31.39H74.26c-17.33,0-31.39-14.05-31.39-31.39V125.54c0-17.33,14.05-31.39,31.39-31.39h11.89c17.33,0,31.39,14.05,31.39,31.39Z"/>
        <path class="cls-6" d="M283.04,339.56V125.55c0-17.33-14.05-31.39-31.39-31.39h-102.73c-17.33,0-31.39-14.05-31.39-31.39h0c0-17.33,14.05-31.39,31.39-31.39h177.39c17.33,0,31.39,14.05,31.39,31.39V339.56c0,17.33-14.05,31.39-31.39,31.39h-11.89c-17.33,0-31.39-14.05-31.39-31.39Z"/>
      </g>
    </g>
  </g>
</svg>